<svg xmlns="http://www.w3.org/2000/svg" xmlns:xlink="http://www.w3.org/1999/xlink" viewBox="0 0 340.92 236.48"><defs><style>.cls-1{fill:#fff;}.cls-2{fill:url(#linear-gradient);}</style><linearGradient id="linear-gradient" y1="118.24" x2="340.92" y2="118.24" gradientUnits="userSpaceOnUse"><stop offset="0.18" stop-color="#fdbb42"/><stop offset="0.64" stop-color="#8fc85c"/><stop offset="0.95" stop-color="#49c0b4"/></linearGradient></defs><g id="Layer_2" data-name="Layer 2"><g id="Layer_1-2" data-name="Layer 1"><path class="cls-1" d="M43.92,36.49h-14v-7H66v7H51.84V70.8H43.92Z"/><path class="cls-1" d="M70.86,29.46h7.91V46.41H98.56V29.46h7.92V70.8H98.56V53.56H78.77V70.8H70.86Z"/><path class="cls-1" d="M114.27,29.46h31.37v6.91H122.19V46.59H137.6v6.67H122.19V63.89h23.68V70.8h-31.6Z"/><path class="cls-1" d="M32.7,80.36H42.92l11.75,23.45L66.43,80.36H76.71v41.35H69.2V90.34L54.62,118.75,40,90.28v31.43H32.7Z"/><path class="cls-1" d="M84.44,80.36h31.37v6.91H92.36V97.49h15.41v6.67H92.36v10.63H116v6.92H84.44Z"/><path class="cls-1" d="M118.64,115.09l4.61-5.67c4.72,4.25,9,6.14,14.06,6.14,5.43,0,8.92-2.24,8.92-5.67,0-3.07-2.07-4.55-7.27-5.43l-7.79-1.36c-7.27-1.24-10.93-5-10.93-11,0-7.56,6.14-12.34,16-12.34a28,28,0,0,1,16.95,5.79l-4.26,5.9c-4.43-3.42-8.68-5-13.17-5-4.84,0-8,2-8,5.08,0,2.78,1.77,4.14,6.26,4.85l7.5,1.24C150,99,154,102.8,154,109.18c0,8-6.79,13.12-17.24,13.12A26.76,26.76,0,0,1,118.64,115.09Z"/><path class="cls-1" d="M156.21,115.09l4.6-5.67c4.73,4.25,9,6.14,14.06,6.14,5.44,0,8.92-2.24,8.92-5.67,0-3.07-2.07-4.55-7.26-5.43l-7.8-1.36c-7.27-1.24-10.93-5-10.93-11,0-7.56,6.15-12.34,15.95-12.34a27.91,27.91,0,0,1,16.95,5.79l-4.25,5.9c-4.43-3.42-8.68-5-13.17-5-4.85,0-8,2-8,5.08,0,2.78,1.78,4.14,6.26,4.85l7.51,1.24c8.44,1.35,12.52,5.19,12.52,11.57,0,8-6.79,13.12-17.25,13.12A26.74,26.74,0,0,1,156.21,115.09Z"/><path class="cls-1" d="M209.25,80.36h9.15l16.84,41.35h-8.57l-4.37-11.17H204.82l-4.37,11.17h-8.27Zm10.63,23.74L213.62,88,207.3,104.1Z"/><path class="cls-1" d="M235,101c0-11.93,9.57-21.32,21.74-21.32a22.34,22.34,0,0,1,17.07,7.56l-5.55,5.14A14.83,14.83,0,0,0,256.74,87C249,87,243.15,93.06,243.15,101s6,14.12,13.82,14.12c6.21,0,11.11-4,12-9.51H256.44V98.73h21v2.54c0,12-8.8,21.08-20.61,21.08C244.63,122.35,235,113,235,101Z"/><path class="cls-1" d="M283.55,80.36h31.37v6.91H291.47V97.49h15.41v6.67H291.47v10.63h23.68v6.92h-31.6Z"/><path class="cls-1" d="M29,147.52l1.3-1.56A6.35,6.35,0,0,0,34.83,148c1.84,0,3.09-.83,3.09-2.09,0-1.11-.72-1.66-2.56-2L33,143.6c-2.39-.4-3.58-1.58-3.58-3.47,0-2.35,1.95-3.87,5-3.87a9,9,0,0,1,5.36,1.8l-1.19,1.65a7,7,0,0,0-4.3-1.61c-1.67,0-2.77.74-2.77,1.86s.65,1.49,2.26,1.76l2.23.36c2.75.46,4,1.63,4,3.69,0,2.47-2.12,4.12-5.36,4.12A8.19,8.19,0,0,1,29,147.52Z"/><path class="cls-1" d="M41.31,143.07a6.82,6.82,0,0,1,7-6.84,7.2,7.2,0,0,1,5.4,2.35l-1.46,1.47a5.16,5.16,0,0,0-3.94-1.82,4.83,4.83,0,0,0,.06,9.65,5,5,0,0,0,3.84-1.75l1.44,1.44a7.27,7.27,0,0,1-5.34,2.33A6.81,6.81,0,0,1,41.31,143.07Z"/><path class="cls-1" d="M55.49,136.43h2.18V149.7H55.49Z"/><path class="cls-1" d="M60.31,136.43H70.2v1.9H62.48v3.75h5.06v1.86H62.48v3.86h7.79v1.9h-10Z"/><path class="cls-1" d="M72.28,136.43h2.1l7.2,9.53v-9.53h2.06V149.7H81.71l-7.37-9.84v9.84H72.28Z"/><path class="cls-1" d="M85.71,143.07a6.82,6.82,0,0,1,7-6.84,7.2,7.2,0,0,1,5.4,2.35l-1.46,1.47a5.16,5.16,0,0,0-3.94-1.82,4.83,4.83,0,0,0,.06,9.65,5,5,0,0,0,3.84-1.75L98,147.57a7.29,7.29,0,0,1-5.34,2.33A6.81,6.81,0,0,1,85.71,143.07Z"/><path class="cls-1" d="M99.89,136.43h9.89v1.9h-7.71v3.75h5.06v1.86h-5.06v3.86h7.79v1.9h-10Z"/><path class="cls-1" d="M115.79,136.43h9.89v1.9H118v3.75h5v1.86h-5v3.86h7.78v1.9h-10Z"/><path class="cls-1" d="M131.53,142.84l-4.8-6.41h2.62l3.47,4.76,3.46-4.76h2.52l-4.73,6.39,5.13,6.88h-2.61l-3.81-5.25L129,149.7h-2.52Z"/><path class="cls-1" d="M140.15,136.43h2.17V142h6.83v-5.59h2.17V149.7h-2.17V144h-6.83v5.69h-2.17Z"/><path class="cls-1" d="M153.94,136.43h2.17V149.7h-2.17Z"/><path class="cls-1" d="M158.75,136.43h5.87c2.61,0,4.34,1.41,4.34,3.55a3.11,3.11,0,0,1-1.82,2.84,3.32,3.32,0,0,1,2.33,3.07c0,2.31-1.84,3.81-4.59,3.81h-6.13Zm5.74,5.59c1.4,0,2.31-.74,2.31-1.87s-.91-1.88-2.31-1.88h-3.56V142Zm.22,5.84c1.56,0,2.54-.8,2.54-2.05s-1-2.06-2.54-2.06h-3.78v4.11Z"/><path class="cls-1" d="M171.55,136.43h2.18V149.7h-2.18Z"/><path class="cls-1" d="M180,138.37h-4.62v-1.94h11.4v1.94h-4.6V149.7H180Z"/><path class="cls-1" d="M188.43,136.43h2.18V149.7h-2.18Z"/><path class="cls-1" d="M192.69,143.07a6.93,6.93,0,1,1,6.94,6.83A6.82,6.82,0,0,1,192.69,143.07Zm11.63,0a4.71,4.71,0,1,0-4.69,4.83A4.68,4.68,0,0,0,204.32,143.07Z"/><path class="cls-1" d="M208.6,136.43h2.11L217.9,146v-9.53H220V149.7H218l-7.37-9.84v9.84H208.6Z"/><path class="cls-1" d="M226,143.07a6.93,6.93,0,1,1,6.94,6.83A6.82,6.82,0,0,1,226,143.07Zm11.64,0a4.71,4.71,0,1,0-4.7,4.83A4.69,4.69,0,0,0,237.59,143.07Z"/><path class="cls-1" d="M241.86,136.43H244l7.2,9.53v-9.53h2.06V149.7H251.3l-7.37-9.84v9.84h-2.07Z"/><path class="cls-1" d="M259.76,136.43h2.18V149.7h-2.18Z"/><path class="cls-1" d="M263.4,147.52l1.31-1.56a6.34,6.34,0,0,0,4.54,2.07c1.84,0,3.09-.83,3.09-2.09,0-1.11-.72-1.66-2.55-2l-2.34-.37c-2.38-.4-3.58-1.58-3.58-3.47,0-2.35,2-3.87,5-3.87a9.09,9.09,0,0,1,5.36,1.8L273,139.71a7.05,7.05,0,0,0-4.31-1.61c-1.66,0-2.76.74-2.76,1.86s.64,1.49,2.25,1.76l2.24.36c2.75.46,4,1.63,4,3.69,0,2.47-2.12,4.12-5.36,4.12A8.21,8.21,0,0,1,263.4,147.52Z"/><path class="cls-1" d="M276.28,136.43h2.18v11.33H286v1.94h-9.72Z"/><path class="cls-1" d="M292.48,136.43H295l5.41,13.27h-2.37l-1.47-3.79h-5.82l-1.51,3.79H287Zm3.43,7.7-2.2-5.59-2.22,5.59Z"/><path class="cls-1" d="M301.76,136.43h2.88l4,8.15,4-8.15h2.86V149.7H313.5V139.12l-4.86,9.63-4.85-9.63V149.7h-2Z"/><path class="cls-1" d="M29.23,199.86l4.36-4.59a2.92,2.92,0,0,0,1.07-2.09,1.76,1.76,0,0,0-2-1.6,3.83,3.83,0,0,0-2.77,1.29l-.92-1.1a5.42,5.42,0,0,1,3.72-1.6c2.08,0,3.51,1.19,3.51,2.9,0,1.05-.36,1.8-1.54,3l-3.41,3.57,5.15,0V201h-7.2Z"/><path class="cls-1" d="M37.64,195.68c0-3.26,1.84-5.51,4.53-5.51s4.54,2.25,4.54,5.51-1.84,5.51-4.54,5.51S37.64,198.94,37.64,195.68Zm7.44,0c0-2.47-1.13-4.06-2.91-4.06s-2.9,1.59-2.9,4.06,1.13,4.06,2.9,4.06S45.08,198.15,45.08,195.68Z"/><path class="cls-1" d="M47.7,199.86l4.37-4.59a2.9,2.9,0,0,0,1.06-2.09,1.75,1.75,0,0,0-2-1.6,3.85,3.85,0,0,0-2.78,1.29l-.91-1.1a5.42,5.42,0,0,1,3.72-1.6c2.07,0,3.51,1.19,3.51,2.9,0,1.05-.37,1.8-1.55,3l-3.41,3.57,5.15,0V201H47.7Z"/><path class="cls-1" d="M61.72,198.36h-6V197l5.84-6.7h1.87V197h1.29v1.4H63.39V201H61.72Zm0-1.4v-4.7L57.63,197Z"/><path class="cls-1" d="M68.59,198.23l1.61-.63a2.57,2.57,0,0,0,2.52,2,2.45,2.45,0,0,0,2.49-2.7v-6.54H77v6.59a4,4,0,0,1-4.25,4.26A4.1,4.1,0,0,1,68.59,198.23Z"/><path class="cls-1" d="M81.81,190.34h2.06L88.23,201h-1.9L85.14,198H80.45L79.23,201H77.42Zm2.76,6.19L82.8,192,81,196.53Z"/><path class="cls-1" d="M89.29,190.34H91l5.8,7.67v-7.67h1.66V201H96.88L91,193.1V201H89.29Z"/><path class="cls-1" d="M105,192.05l-2,.82v-1.46l2.57-1.07h1V201H105Z"/><path class="cls-1" d="M116.38,195.39c0,3.48-2,5.78-5,5.78a4.8,4.8,0,0,1-2.79-.88l.87-1.19a3.54,3.54,0,0,0,2.06.64c2,0,3.18-1.6,3.22-4.32a3.75,3.75,0,0,1-3,1.57,3.32,3.32,0,0,1-3.59-3.29,3.55,3.55,0,0,1,3.75-3.53C114.58,190.17,116.38,192.31,116.38,195.39Zm-1.68-1c-.26-1.73-1.27-2.84-2.65-2.84a2.11,2.11,0,0,0-2.23,2.11,2.06,2.06,0,0,0,2.24,2.06A3.44,3.44,0,0,0,114.7,194.4Z"/><path class="cls-1" d="M117.8,196h5.55v1.44H117.8Z"/><path class="cls-1" d="M124.22,199.86l4.36-4.59a2.92,2.92,0,0,0,1.07-2.09,1.76,1.76,0,0,0-2-1.6,3.86,3.86,0,0,0-2.78,1.29l-.91-1.1a5.42,5.42,0,0,1,3.72-1.6c2.08,0,3.51,1.19,3.51,2.9,0,1.05-.37,1.8-1.54,3l-3.42,3.57,5.16,0V201h-7.2Z"/><path class="cls-1" d="M132.76,196c0-3.49,2-5.8,4.94-5.8a4.78,4.78,0,0,1,2.81.9l-.87,1.18a3.64,3.64,0,0,0-2.06-.64c-2,0-3.2,1.6-3.23,4.33a3.72,3.72,0,0,1,3-1.59,3.32,3.32,0,0,1,3.57,3.3,3.53,3.53,0,0,1-3.74,3.52C134.55,201.17,132.76,199.05,132.76,196Zm1.66,1c.26,1.72,1.28,2.85,2.67,2.85a2.12,2.12,0,0,0,2.23-2.12,2.07,2.07,0,0,0-2.24-2.05A3.44,3.44,0,0,0,134.42,197Z"/><path class="cls-1" d="M145.76,190.34h1.75v4.91l5.05-4.91h2.2l-5.46,5.14,5.64,5.54h-2.38l-5.05-5v5h-1.75Z"/><path class="cls-1" d="M159.55,190.34h2L166,201h-1.91L162.87,198h-4.68L157,201h-1.82Zm2.76,6.19-1.77-4.5-1.79,4.5Z"/><path class="cls-1" d="M167,190.34H172c2.12,0,3.59,1.3,3.59,3.2a3,3,0,0,1-2.17,2.92l2.38,4.56h-1.95l-2.18-4.32h-2.86V201H167Zm4.79,4.91a1.71,1.71,0,1,0,0-3.38h-3v3.38Z"/><path class="cls-1" d="M177.15,190.34h1.75V201h-1.75Z"/><path class="cls-1" d="M181,190.34h5a3.24,3.24,0,1,1,0,6.45h-3.28V201H181Zm4.87,5a1.73,1.73,0,1,0,0-3.44h-3.11v3.44Z"/><path class="cls-1" d="M191,196.44v-6.1h1.75v6.1a2.85,2.85,0,1,0,5.68,0v-6.1h1.75v6.1c0,2.9-1.8,4.75-4.59,4.75S191,199.36,191,196.44Z"/><path class="cls-1" d="M202.1,190.34h5c2.12,0,3.58,1.3,3.58,3.2a3,3,0,0,1-2.17,2.92l2.38,4.56h-2l-2.18-4.32h-2.85V201H202.1Zm4.79,4.91a1.71,1.71,0,1,0,0-3.38h-3v3.38Z"/><path class="cls-2" d="M340.91,167.87V0H293.74a74.7,74.7,0,0,0-50.48,19.51A74.71,74.71,0,0,0,192.82.06H0V11.29H.17V168.92h0V179H214.5l65.11,57.47V179h61.31V167.87ZM329.68,41.45h0V52.72h0V167.87h-61.2V211.8l-49.77-43.93H11.4V11.29H156.26v0h36.56a63.55,63.55,0,0,1,42,15.8,63.19,63.19,0,0,1-39.4,13.56l-39.09.75.22,11.28,39-.76a75.07,75.07,0,0,0,47.71-17.13A75.06,75.06,0,0,0,291,52l23.92.46V41.16l-23.81-.46a63.14,63.14,0,0,1-39.43-13.57,63.48,63.48,0,0,1,42.05-15.85h35.94Z"/></g></g></svg>